<svg width="774" height="292" viewBox="0 0 774 292" fill="none" xmlns="http://www.w3.org/2000/svg">
<path d="M275.233 234.183L269.892 229.564V107.916H268.359L251.494 114.97V116.559L257.033 120.185V229.564L251.494 234.183V235.773H275.233V234.183Z" fill="white"/>
<path d="M357.676 178.301C357.676 147.951 335.669 146.561 327.459 146.561C318.507 146.561 301 149.144 289.823 156.545L294.125 167.92C306.836 155.154 318.854 148.597 328.992 148.597C346.697 148.597 344.966 168.416 344.966 168.416C339.625 172.042 286.41 186 283.987 214.661C282.602 230.209 297.043 238.107 308.715 238.107C330.525 238.107 340.664 218.436 344.966 203.237V235.673H363.166V234.133L357.676 229.464V178.202V178.301ZM314.749 232.841C303.572 232.841 297.043 223.702 297.043 214.016C297.043 190.57 329.19 178.649 344.966 171.049V190.868C343.087 206.763 332.602 232.792 314.749 232.792V232.841Z" fill="white"/>
<path d="M389.971 146.561H388.438L371.771 153.614V155.154L377.261 158.78V229.513L371.771 234.183V235.723H395.461V234.183L389.971 229.513V173.781C392.543 159.823 402.83 149.64 417.271 149.64C431.712 149.64 440.812 161.214 440.812 176.91V229.513L435.322 234.183V235.723H459.21V234.183L453.72 229.513V177.904C453.72 155.452 438.24 146.511 421.92 146.511C410.05 146.511 399.269 151.329 389.971 159.624V146.511V146.561Z" fill="white"/>
<path d="M485.965 173.831C488.537 159.873 498.824 149.69 513.265 149.69C527.706 149.69 536.806 161.264 536.806 176.96V229.563L531.316 234.232V235.772H555.204V234.232L549.714 229.563V177.953C549.714 155.502 534.234 146.561 517.914 146.561C506.044 146.561 495.263 151.379 485.965 159.674V146.561H484.432L467.765 153.614V155.154L473.255 158.78V229.513L467.765 234.183V235.722H491.455V234.183L485.965 229.513V173.781V173.831Z" fill="white"/>
<path d="M582.009 146.561H580.426L563.76 153.614V155.204L569.101 158.83V229.563L563.76 234.183V235.772H587.498V234.183L582.009 229.563V146.561Z" fill="white"/>
<path d="M678.003 177.953C678.003 155.502 662.523 146.561 646.203 146.561C634.333 146.561 623.552 151.379 614.254 159.674V146.561H612.721L596.054 153.614V155.154L601.544 158.78V229.513L596.054 234.183V235.722H619.744V234.183L614.254 229.513V173.781C616.826 159.823 627.113 149.64 641.554 149.64C655.995 149.64 665.095 161.214 665.095 176.91V229.513L659.605 234.183V235.722H683.492V234.183L678.003 229.513V177.904V177.953Z" fill="white"/>
<path d="M736.757 232.991H723.552C706.885 232.991 700.703 232.842 700.703 227.279C700.703 223.653 706.885 219.182 710.001 217.096C715.144 219.877 721.178 221.417 727.854 221.417C750.011 221.417 764.798 204.678 764.798 183.964C764.798 172.589 760.347 162.556 752.582 155.651L771.475 152.72V139.259L748.972 152.72C743.136 148.945 735.916 146.511 727.854 146.511C705.698 146.511 690.911 163.251 690.911 183.964C690.911 197.575 697.439 209.496 708.072 216.053C703.423 218.983 692.246 227.08 692.246 235.723C692.246 239.945 695.065 243.969 702.681 245.608C677.459 268.01 684.679 287.68 709.061 291.306C738.092 295.628 773.651 278.541 773.651 254.4C773.651 232.643 748.923 232.991 736.707 232.991H736.757ZM705.995 195.737C699.615 177.606 704.116 157.936 715.936 151.379C727.953 144.972 743.087 154.161 749.417 172.242C755.945 190.372 751.494 210.191 739.427 216.599C727.558 223.156 712.474 213.668 705.945 195.737H705.995ZM771.079 257.33C771.079 269.6 751 282.167 724.343 282.167C699.615 282.167 684.531 267.861 705.055 245.955C706.885 246.254 709.012 246.452 711.287 246.452L747.884 246.601C758.863 246.601 771.079 246.601 771.079 257.281V257.33Z" fill="white"/>
<path d="M170.09 150.336C176.074 150.634 182.058 150.982 185.52 150.982C218.26 150.982 235.57 139.905 235.57 122.222C235.57 119.39 234.927 116.509 233.69 114.324L231.811 115.267C232.751 116.857 233.394 119.39 233.394 122.222C233.394 137.372 218.903 148.796 185.57 148.796C182.404 148.796 177.36 148.498 171.722 148.498C174.887 143.779 177.706 139.011 180.525 134.292C218.903 69.8173 245.065 41.355 286.608 39.1197V37.2322C242.246 39.1197 202.236 72.6486 163.512 133.05C160.347 138.117 157.231 142.836 154.066 147.604H152.484C113.76 147.306 94.8673 157.39 81.6626 168.467L83.2452 170.056C97.0928 158.681 115.342 149.839 151.89 149.839H152.533C115.688 205.174 82.6517 241.535 42.0483 241.535C17.172 241.535 4.26398 229.216 4.26398 214.364C4.26398 201.697 20.9306 202.989 20.9306 192.856C20.9306 190.322 19.0513 188.137 15.2432 188.137C7.08297 188.137 0.455872 197.922 0.455872 210.589C0.455872 229.862 14.9465 243.77 41.9989 243.77C85.1245 243.77 131.415 209.297 170.09 150.485V150.336Z" fill="white"/>
<path d="M77.2115 109.555C113.413 109.555 146.153 79.8509 159.358 46.024L157.132 45.3783C144.224 78.5594 112.77 107.022 77.805 107.022C58.2699 107.022 43.8288 95.001 43.8288 73.4929C43.8288 35.8909 94.5211 4.5973 151.198 4.5973C182.701 4.5973 217.914 11.8495 254.758 21.6846C301.989 34.351 337.845 44.1365 365.54 44.1365C396.697 44.1365 413.413 31.172 413.413 7.4783C413.413 5.24304 413.117 2.11368 412.474 0.524166L410.248 0.8222C410.545 2.70975 410.891 4.94501 410.891 7.13059C410.891 29.2845 391.059 38.7719 363.661 38.7719C339.13 38.7719 318.952 35.9406 256.341 19.499C218.903 9.71355 184.234 0.226132 147.093 0.226132C84.4321 0.176459 37.5479 32.4138 37.5479 72.251C37.5479 97.5343 56.1433 109.555 77.2115 109.555Z" fill="white"/>
<path d="M592.138 126.65C591.378 127.915 590.289 128.312 589.201 128.672C587.416 129.255 585.595 129.453 583.774 129.578C582.246 129.689 580.718 129.702 579.19 129.689C578.522 129.689 577.863 129.664 577.195 129.627C576.975 129.627 576.829 129.702 576.682 129.925C574.806 132.816 572.921 135.694 571.045 138.585C570.899 138.808 570.753 138.932 570.524 138.969C569.746 139.094 568.968 139.267 568.19 139.416C568.145 139.416 568.099 139.416 568.007 139.416C569.398 136.041 570.771 132.704 572.162 129.317C571.466 129.243 570.807 129.168 570.149 129.081C566.79 128.684 563.469 127.977 560.193 126.923C559.982 126.86 559.845 126.898 559.68 127.084C559.168 127.692 558.637 128.287 558.115 128.883C558.024 128.982 557.942 129.081 557.804 129.056C557.127 128.908 556.459 128.784 555.736 128.635C556.075 128.101 556.395 127.605 556.706 127.109C557.1 126.488 557.502 125.868 557.896 125.248C557.978 125.124 558.024 125.024 557.969 124.826C556.898 121.414 555.837 117.99 554.775 114.578C554.775 114.553 554.748 114.541 554.739 114.516C554.739 114.28 554.867 114.355 554.949 114.355C555.379 114.355 555.8 114.367 556.23 114.355C556.441 114.355 556.569 114.441 556.706 114.665C558.198 117.084 559.689 119.491 561.181 121.923C561.336 122.171 561.501 122.27 561.739 122.258C564.192 122.233 566.644 122.196 569.096 122.084C569.572 122.059 570.048 122.047 570.524 122.034C570.579 122.034 570.652 122.047 570.689 121.972C570.716 121.885 570.652 121.836 570.615 121.774C570.579 121.724 570.551 121.674 570.515 121.625C568.437 118.449 566.36 115.273 564.292 112.096C564.219 111.985 564.091 111.898 564.118 111.699H564.356C564.375 111.811 564.448 111.774 564.503 111.786C565.107 111.923 565.72 112.034 566.324 112.196C566.681 112.283 567.065 112.221 567.376 112.543C570.277 115.521 573.187 118.511 576.087 121.501C576.243 121.662 576.399 121.737 576.6 121.724C579.153 121.575 581.697 121.439 584.25 121.426C585.504 121.426 586.721 121.687 587.91 122.22C588.688 122.568 589.448 122.977 590.042 123.771C590.363 124.193 590.729 124.54 591.095 124.875C591.507 125.248 591.909 125.632 592.156 126.253V126.662L592.138 126.65Z" fill="white"/>
</svg>
