<svg width="194" height="89" viewBox="0 0 194 89" fill="none" xmlns="http://www.w3.org/2000/svg">
<path d="M68.6574 58.4579L67.3228 57.3036V26.9081H66.9397L62.7258 28.6705V29.0677L64.1099 29.9737V57.3036L62.7258 58.4579V58.8551H68.6574V58.4579Z" fill="white"/>
<path d="M89.2571 44.4949C89.2571 36.9115 83.7581 36.564 81.7067 36.564C79.4701 36.564 75.0956 37.2094 72.3028 39.0587L73.3779 41.9009C76.5537 38.7111 79.5566 37.0728 82.0898 37.0728C86.5138 37.0728 86.0813 42.025 86.0813 42.025C84.7467 42.931 71.4502 46.4186 70.8446 53.58C70.4986 57.4648 74.107 59.4382 77.0233 59.4382C82.4729 59.4382 85.0062 54.5233 86.0813 50.7254V58.83H90.6288V58.4453L89.2571 57.2786V44.47V44.4949ZM78.5309 58.1226C75.7382 58.1226 74.107 55.8389 74.107 53.4187C74.107 47.5605 82.1393 44.5817 86.0813 42.6828V47.6349C85.6117 51.6066 82.9919 58.1102 78.5309 58.1102V58.1226Z" fill="white"/>
<path d="M97.3266 36.564H96.9435L92.7791 38.3265V38.7112L94.1507 39.6173V57.2911L92.7791 58.4578V58.8425H98.6982V58.4578L97.3266 57.2911V43.3655C97.9691 39.8779 100.539 37.3336 104.148 37.3336C107.756 37.3336 110.03 40.2254 110.03 44.1474V57.2911L108.658 58.4578V58.8425H114.627V58.4578L113.255 57.2911V44.3956C113.255 38.7857 109.387 36.5516 105.309 36.5516C102.344 36.5516 99.6497 37.7555 97.3266 39.8282V36.5516V36.564Z" fill="white"/>
<path d="M121.312 43.3778C121.955 39.8902 124.525 37.3459 128.133 37.3459C131.742 37.3459 134.016 40.2377 134.016 44.1597V57.3034L132.644 58.4701V58.8549H138.612V58.4701L137.241 57.3034V44.408C137.241 38.798 133.373 36.564 129.295 36.564C126.329 36.564 123.635 37.7679 121.312 39.8406V36.564H120.929L116.765 38.3264V38.7111L118.136 39.6172V57.291L116.765 58.4577V58.8424H122.684V58.4577L121.312 57.291V43.3654V43.3778Z" fill="white"/>
<path d="M145.31 36.564H144.915L140.75 38.3264V38.7236L142.085 39.6296V57.3034L140.75 58.4577V58.8549H146.682V58.4577L145.31 57.3034V36.564Z" fill="white"/>
<path d="M169.296 44.408C169.296 38.798 165.428 36.564 161.35 36.564C158.384 36.564 155.69 37.7679 153.367 39.8406V36.564H152.984L148.82 38.3264V38.7111L150.191 39.6172V57.291L148.82 58.4577V58.8424H154.739V58.4577L153.367 57.291V43.3654C154.01 39.8778 156.58 37.3335 160.188 37.3335C163.797 37.3335 166.07 40.2253 166.07 44.1473V57.291L164.699 58.4577V58.8424H170.667V58.4577L169.296 57.291V44.3956V44.408Z" fill="white"/>
<path d="M183.976 58.16H180.677C176.512 58.16 174.968 58.1227 174.968 56.7326C174.968 55.8266 176.512 54.7096 177.291 54.1883C178.576 54.8833 180.084 55.2681 181.752 55.2681C187.288 55.2681 190.983 51.0855 190.983 45.9099C190.983 43.0677 189.871 40.5606 187.93 38.8354L192.651 38.1031V34.7396L187.028 38.1031C185.57 37.1598 183.766 36.5517 181.752 36.5517C176.216 36.5517 172.521 40.7343 172.521 45.9099C172.521 49.3106 174.152 52.2894 176.809 53.9277C175.647 54.6599 172.855 56.683 172.855 58.8426C172.855 59.8976 173.559 60.9029 175.462 61.3125C169.16 66.91 170.964 71.8249 177.056 72.731C184.31 73.8107 193.195 69.5412 193.195 63.5093C193.195 58.0731 187.016 58.16 183.964 58.16H183.976ZM176.29 48.8514C174.696 44.3212 175.82 39.4063 178.774 37.768C181.777 36.1669 185.558 38.463 187.14 42.9808C188.771 47.511 187.659 52.4631 184.643 54.0642C181.678 55.7025 177.909 53.3319 176.278 48.8514H176.29ZM192.552 64.2416C192.552 67.3072 187.535 70.4473 180.874 70.4473C174.696 70.4473 170.927 66.8728 176.055 61.3993C176.512 61.4738 177.044 61.5235 177.612 61.5235L186.757 61.5607C189.5 61.5607 192.552 61.5607 192.552 64.2291V64.2416Z" fill="white"/>
<path d="M42.3857 37.5074C43.8809 37.5818 45.3762 37.6687 46.2412 37.6687C54.4218 37.6687 58.7468 34.901 58.7468 30.4825C58.7468 29.7751 58.5862 29.0552 58.2772 28.5091L57.8077 28.7449C58.0425 29.1421 58.2031 29.7751 58.2031 30.4825C58.2031 34.268 54.5824 37.1226 46.2535 37.1226C45.4627 37.1226 44.2022 37.0481 42.7935 37.0481C43.5844 35.8691 44.2887 34.6776 44.9931 33.4985C54.5824 17.3885 61.1194 10.2767 71.4996 9.71822V9.24658C60.4151 9.71822 50.418 18.0959 40.7422 33.1882C39.9513 34.4542 39.1728 35.6332 38.3819 36.8247H37.9865C28.3107 36.7503 23.5902 39.2698 20.2908 42.0375L20.6862 42.4347C24.1463 39.5925 28.7061 37.3833 37.8382 37.3833H37.9988C28.7926 51.2096 20.5379 60.2947 10.3925 60.2947C4.17678 60.2947 0.951516 57.2167 0.951516 53.5057C0.951516 50.3408 5.11594 50.6635 5.11594 48.1315C5.11594 47.4986 4.64636 46.9525 3.69485 46.9525C1.65588 46.9525 0 49.3975 0 52.5624C0 57.378 3.6207 60.8532 10.3802 60.8532C21.1558 60.8532 32.7223 52.2397 42.3857 37.5446V37.5074Z" fill="white"/>
<path d="M19.1787 27.3175C28.2242 27.3175 36.4048 19.8955 39.7042 11.4433L39.1481 11.282C35.9229 19.5728 28.0636 26.6845 19.3269 26.6845C14.4458 26.6845 10.8374 23.681 10.8374 18.3068C10.8374 8.91141 23.5037 1.09222 37.6652 1.09222C45.5369 1.09222 54.3353 2.90428 63.5415 5.36174C75.3428 8.52665 84.3019 10.9717 91.222 10.9717C99.0071 10.9717 103.184 7.73232 103.184 1.81208C103.184 1.25357 103.11 0.471648 102.949 0.0744828L102.393 0.148951C102.467 0.620585 102.554 1.1791 102.554 1.7252C102.554 7.26069 97.5984 9.63127 90.7524 9.63127C84.6231 9.63127 79.5814 8.92382 63.937 4.81564C54.5825 2.37059 45.92 1.43237e-05 36.6396 1.43237e-05C20.9828 -0.0123971 9.26807 8.04261 9.26807 17.9966C9.26807 24.314 13.9144 27.3175 19.1787 27.3175Z" fill="white"/>
<path d="M147.841 31.5889C147.651 31.9051 147.379 32.0043 147.107 32.0942C146.661 32.2399 146.206 32.2895 145.751 32.3205C145.369 32.3484 144.988 32.3515 144.606 32.3484C144.439 32.3484 144.274 32.3422 144.107 32.3329C144.052 32.3329 144.016 32.3515 143.979 32.4073C143.511 33.1296 143.04 33.8488 142.571 34.5711C142.534 34.6269 142.498 34.6579 142.44 34.6672C142.246 34.6982 142.052 34.7416 141.857 34.7788C141.846 34.7788 141.835 34.7788 141.812 34.7788C142.159 33.9356 142.502 33.1017 142.85 32.2554C142.676 32.2368 142.511 32.2182 142.347 32.1965C141.508 32.0973 140.678 31.9206 139.859 31.6571C139.806 31.6416 139.772 31.6509 139.731 31.6974C139.603 31.8493 139.47 31.9981 139.34 32.1469C139.317 32.1717 139.297 32.1965 139.262 32.1903C139.093 32.1531 138.926 32.1221 138.746 32.0849C138.83 31.9516 138.91 31.8276 138.988 31.7036C139.086 31.5486 139.187 31.3936 139.285 31.2386C139.306 31.2076 139.317 31.1828 139.303 31.1332C139.036 30.2807 138.771 29.4251 138.505 28.5726C138.505 28.5664 138.499 28.5633 138.496 28.5571C138.496 28.4982 138.528 28.5168 138.549 28.5168C138.656 28.5168 138.762 28.5199 138.869 28.5168C138.922 28.5168 138.954 28.5385 138.988 28.5943C139.361 29.1988 139.733 29.8002 140.106 30.4078C140.145 30.4698 140.186 30.4946 140.245 30.4915C140.858 30.4853 141.471 30.476 142.084 30.4481C142.203 30.4419 142.322 30.4388 142.44 30.4357C142.454 30.4357 142.472 30.4388 142.482 30.4202C142.488 30.3985 142.472 30.3861 142.463 30.3706C142.454 30.3582 142.447 30.3458 142.438 30.3334C141.919 29.5398 141.4 28.7462 140.883 27.9526C140.865 27.9247 140.833 27.903 140.84 27.8534H140.899C140.904 27.8813 140.922 27.872 140.936 27.8751C141.087 27.9092 141.24 27.9371 141.391 27.9774C141.48 27.9991 141.576 27.9836 141.654 28.0642C142.379 28.8082 143.106 29.5553 143.831 30.3024C143.87 30.3427 143.908 30.3613 143.959 30.3582C144.597 30.321 145.232 30.2869 145.87 30.2838C146.183 30.2838 146.488 30.3489 146.785 30.4822C146.979 30.569 147.169 30.6713 147.317 30.8697C147.398 30.9751 147.489 31.0619 147.58 31.1456C147.683 31.2386 147.784 31.3347 147.846 31.4897V31.592L147.841 31.5889Z" fill="white"/>
<path d="M57.4672 78.5739H54.4443C54.2228 78.0858 53.946 77.6864 53.5806 77.409C53.182 77.0984 52.7169 76.9431 52.1965 76.9431C51.6761 76.9431 51.211 77.0984 50.8013 77.409C50.3916 77.7197 50.0816 78.1523 49.849 78.7181C49.6276 79.2839 49.5168 79.9495 49.5168 80.6928C49.5168 81.4472 49.6276 82.1018 49.849 82.6676C50.0705 83.2334 50.3916 83.666 50.8013 83.9767C51.211 84.2873 51.6761 84.4426 52.1965 84.4426C52.7169 84.4426 53.182 84.2873 53.5806 83.9767C53.9792 83.666 54.2893 83.2334 54.5218 82.6787H57.4672V86.9388H58.2312V76.0667H57.4672V78.5628V78.5739ZM53.8906 82.2904C53.7245 82.7563 53.492 83.1113 53.2041 83.3776C52.9051 83.6328 52.573 83.7659 52.1965 83.7659C51.82 83.7659 51.4767 83.6328 51.1889 83.3776C50.8899 83.1224 50.6684 82.7563 50.5023 82.2904C50.3362 81.8244 50.2587 81.2919 50.2587 80.6928C50.2587 80.0938 50.3362 79.5613 50.5023 79.1064C50.6684 78.6405 50.8899 78.2854 51.1889 78.0192C51.4767 77.764 51.82 77.6309 52.1965 77.6309C52.573 77.6309 52.9051 77.764 53.2041 78.0303C53.5031 78.2855 53.7245 78.6516 53.8906 79.1175C54.0567 79.5834 54.1342 80.1049 54.1342 80.7039C54.1342 81.303 54.0567 81.8355 53.8906 82.2904ZM54.71 82.0352C54.8097 81.6247 54.8761 81.1921 54.8761 80.7039C54.8761 80.1603 54.7986 79.6833 54.6768 79.2395H57.4783V82.0352H54.71Z" fill="white"/>
<path d="M64.1441 82.1905C64.4985 82.0351 64.7642 81.8244 64.9635 81.547C65.1628 81.2697 65.2625 80.9479 65.2625 80.5707C65.2625 80.2046 65.1628 79.8829 64.9635 79.5945C64.7642 79.3171 64.4985 79.0952 64.1441 78.951C63.7898 78.7957 63.3912 78.7291 62.9372 78.7291C62.4832 78.7291 62.0846 78.8068 61.7302 78.951C61.3759 79.1063 61.1102 79.3171 60.9219 79.5945C60.7337 79.8718 60.634 80.1935 60.634 80.5707C60.634 80.9368 60.7226 81.2697 60.9219 81.547C61.1102 81.8244 61.387 82.0351 61.7302 82.1905C62.0846 82.3347 62.4832 82.4123 62.9372 82.4123C63.3912 82.4123 63.7898 82.3347 64.1441 82.1905ZM61.5309 81.2142C61.3981 81.0256 61.3316 80.8148 61.3316 80.5707C61.3316 80.3267 61.3981 80.1159 61.5309 79.9273C61.6638 79.7387 61.8521 79.5945 62.0957 79.4835C62.3393 79.3726 62.6161 79.3282 62.9372 79.3282C63.2583 79.3282 63.5351 79.3837 63.7787 79.4835C64.0223 79.5834 64.2106 79.7387 64.3545 79.9273C64.4874 80.1159 64.5649 80.3378 64.5649 80.5707C64.5649 80.8037 64.4985 81.0256 64.3545 81.2142C64.2216 81.4028 64.0223 81.547 63.7787 81.6468C63.5351 81.7467 63.2583 81.8022 62.9372 81.8022C62.6161 81.8022 62.3393 81.7467 62.0957 81.6468C61.8521 81.547 61.6638 81.4028 61.5309 81.2142Z" fill="white"/>
<path d="M66.2368 76.3106V82.5787H66.9676V79.783H68.6064V82.9781H69.3372V76.0776H68.6064V79.1285H66.9676V76.3106H66.2368Z" fill="white"/>
<path d="M67.7428 83.3997C67.2003 83.2555 66.5581 83.1779 65.8051 83.1779C65.0521 83.1779 64.3988 83.2444 63.8673 83.3997C63.3248 83.544 62.9151 83.7547 62.6272 84.0321C62.3393 84.3094 62.1953 84.6534 62.2064 85.0416C62.2064 85.4299 62.3504 85.7628 62.6272 86.0401C62.9151 86.3175 63.3248 86.5282 63.8673 86.6725C64.4099 86.8167 65.0521 86.8943 65.8051 86.8943C66.5581 86.8943 67.2003 86.8278 67.7318 86.6725C68.2744 86.5282 68.684 86.3175 68.9719 86.0401C69.2598 85.7628 69.4038 85.4299 69.4038 85.0416C69.4038 84.6534 69.2598 84.3094 68.9719 84.0321C68.684 83.7547 68.2744 83.544 67.7318 83.3997H67.7428ZM68.2854 85.7184C68.0529 85.907 67.7318 86.0401 67.2999 86.14C66.8792 86.2398 66.3698 86.2842 65.794 86.2842C65.2072 86.2842 64.7089 86.2398 64.277 86.14C63.8452 86.0401 63.5241 85.8959 63.2915 85.7184C63.059 85.5298 62.9483 85.3079 62.9483 85.0638C62.9483 84.8087 63.059 84.5757 63.2915 84.3871C63.5241 84.1985 63.8452 84.0543 64.277 83.9544C64.6978 83.8546 65.2072 83.8102 65.794 83.8102C66.3698 83.8102 66.8792 83.8546 67.2999 83.9544C67.7207 84.0543 68.0529 84.1985 68.2854 84.3871C68.518 84.5757 68.6287 84.7976 68.6287 85.0638C68.6287 85.319 68.5069 85.5409 68.2854 85.7295V85.7184Z" fill="white"/>
<path d="M65.7498 77.4423H63.3359V76.1554H62.5719V77.4423H60.1248V78.0858H65.7498V77.4423Z" fill="white"/>
<path d="M75.9588 83.6992C75.1173 83.7547 74.32 83.788 73.5671 83.7991C72.8141 83.8102 71.9947 83.8213 71.1089 83.8102L71.2307 84.498C72.1387 84.498 72.947 84.498 73.6667 84.4758C74.3865 84.4536 75.1616 84.4203 75.992 84.3427C76.8225 84.2761 77.6308 84.1652 78.4059 84.021L78.3395 83.433C77.5976 83.5439 76.8004 83.6327 75.9588 83.6881V83.6992Z" fill="white"/>
<path d="M79.8676 76.0776H79.0925V86.9498H79.8676V76.0776Z" fill="white"/>
<path d="M74.6079 76.8987C74.0432 76.8987 73.5449 77.0096 73.102 77.2204C72.6591 77.4312 72.3158 77.7307 72.0722 78.1079C71.8286 78.4851 71.7068 78.9178 71.7068 79.417C71.7068 79.9052 71.8286 80.3378 72.0722 80.7261C72.3158 81.1033 72.6591 81.4028 73.102 81.6136C73.5449 81.8244 74.0432 81.9354 74.6079 81.9354C75.1726 81.9354 75.6598 81.8244 76.1027 81.6136C76.5456 81.4028 76.8778 81.1033 77.1325 80.7261C77.3761 80.3489 77.4979 79.9052 77.509 79.417C77.509 78.9289 77.3872 78.4851 77.1325 78.1079C76.8889 77.7307 76.5456 77.4312 76.1027 77.2204C75.6598 77.0096 75.1615 76.9098 74.6079 76.9098V76.8987ZM76.4681 78.474C76.6453 78.7514 76.745 79.062 76.745 79.417C76.745 79.772 76.6564 80.0827 76.4681 80.36C76.2799 80.6374 76.0363 80.8592 75.7041 81.0146C75.383 81.1699 75.0176 81.2475 74.6079 81.2475C74.1982 81.2475 73.8217 81.1699 73.5006 81.0146C73.1795 80.8592 72.9248 80.6374 72.7366 80.36C72.5483 80.0827 72.4597 79.772 72.4708 79.417C72.4708 79.062 72.5594 78.7514 72.7366 78.474C72.9137 78.1967 73.1684 77.9748 73.5006 77.8195C73.8328 77.6642 74.1982 77.5865 74.6079 77.5865C75.0176 77.5865 75.383 77.6642 75.7041 77.8195C76.0252 77.9748 76.2799 78.1967 76.4681 78.474Z" fill="white"/>
<path d="M93.8418 76.0776H93.0667V86.9498H93.8418V76.0776Z" fill="white"/>
<path d="M89.1135 81.0479C88.8367 80.4156 88.6928 79.7832 88.6928 79.1508V77.0541H87.9287V79.1508C87.9287 79.8054 87.7848 80.4599 87.4969 81.1145C87.2201 81.769 86.8436 82.3459 86.3785 82.8562C85.9135 83.3666 85.4373 83.7438 84.928 83.9878L85.4263 84.6313C85.9799 84.3428 86.5003 83.9102 86.9875 83.3444C87.4637 82.7786 87.8512 82.1351 88.1391 81.3918C88.2166 81.1921 88.2609 80.9924 88.3163 80.7928C88.3716 80.9703 88.4049 81.1478 88.4824 81.3253C88.7703 82.0353 89.1689 82.6565 89.645 83.2002C90.1322 83.7438 90.6527 84.1542 91.2063 84.4316L91.6935 83.8214C91.1842 83.5773 90.697 83.2112 90.2319 82.7231C89.7668 82.235 89.4014 81.6692 89.1135 81.0479Z" fill="white"/>
<path d="M104.261 76.0776H103.486V82.6231H104.261V79.6943H105.933V79.0286H104.261V76.0776Z" fill="white"/>
<path d="M97.23 83.8768H103.486V86.9388H104.261V83.2334H97.23V83.8768Z" fill="white"/>
<path d="M98.8687 79.9607C98.9351 79.8165 98.9684 79.6723 99.0127 79.5281C99.0569 79.639 99.0791 79.7499 99.1234 79.8498C99.3781 80.3712 99.7213 80.8372 100.164 81.2254C100.607 81.6137 101.117 81.9133 101.692 82.1241L102.091 81.525C101.57 81.3475 101.105 81.0812 100.696 80.7373C100.286 80.4045 99.9649 80.0051 99.7324 79.5613C99.4999 79.1176 99.3781 78.6516 99.3781 78.1635V77.5422H101.892V76.8877H96.0562V77.5422H98.614V78.1635C98.614 78.6849 98.4811 79.1842 98.2375 79.6612C97.9939 80.1382 97.6507 80.5487 97.2299 80.9148C96.8091 81.2809 96.333 81.5472 95.8015 81.7469L96.2223 82.357C96.7981 82.1352 97.3185 81.8245 97.7725 81.414C98.2265 81.0036 98.5808 80.5265 98.8466 79.9607H98.8687Z" fill="white"/>
<path d="M106.664 88.4143H107.384L108.281 85.2303H107.351L106.664 88.4143Z" fill="white"/>
<path d="M122.864 80.837H112.832V81.7689H122.864V80.837Z" fill="white"/>
<path d="M121.923 77.2203V76.3328H113.751V77.2203H115.356V79.1285H113.795V80.016H121.867V79.1285H120.317V77.2203H121.923ZM119.154 79.1285H116.519V77.2203H119.154V79.1285Z" fill="white"/>
<path d="M115.19 85.1415H121.59V82.6232H114.028V83.4885H120.439V84.3095H114.05V86.029V86.384V86.9165H121.911V86.029H115.19V85.1415Z" fill="white"/>
<path d="M132.032 80.2934H130.604V76.2219H129.53V86.4505H130.604V81.2475H132.032V87.0163H133.139V76H132.032V80.2934Z" fill="white"/>
<path d="M126.883 83.411C126.374 83.4442 125.798 83.4553 125.178 83.4664V81.1478H128.19V77.165H124.037V78.1302H127.071V80.2048H124.059V84.4649H124.801C125.599 84.4649 126.307 84.4316 126.927 84.3983C127.559 84.354 128.223 84.2763 128.921 84.1543L128.821 83.2113C128.145 83.3222 127.503 83.3888 126.894 83.4332L126.883 83.411Z" fill="white"/>
<path d="M141.976 82.8894C141.411 82.7119 140.746 82.6343 139.982 82.6343C139.218 82.6343 138.554 82.7119 137.989 82.8894C137.425 83.0669 136.993 83.3221 136.694 83.6438C136.395 83.9767 136.24 84.3649 136.24 84.8309C136.24 85.2968 136.395 85.674 136.694 85.9958C136.993 86.3175 137.425 86.5726 137.989 86.7391C138.554 86.9055 139.218 86.9942 139.982 86.9942C140.746 86.9942 141.411 86.9055 141.976 86.7391C142.54 86.5726 142.972 86.3175 143.271 85.9958C143.57 85.674 143.725 85.2857 143.725 84.8309C143.725 84.376 143.57 83.9767 143.271 83.6438C142.972 83.311 142.54 83.0558 141.976 82.8894ZM142.241 85.4965C142.042 85.6851 141.743 85.8294 141.355 85.9181C140.968 86.018 140.514 86.0623 139.971 86.0623C139.429 86.0623 138.975 86.018 138.587 85.9181C138.2 85.8183 137.901 85.6851 137.701 85.4965C137.502 85.3079 137.391 85.0861 137.402 84.8309C137.402 84.5646 137.502 84.3428 137.701 84.1542C137.901 83.9656 138.2 83.8213 138.587 83.7326C138.975 83.6327 139.44 83.5884 139.982 83.5884C140.525 83.5884 140.979 83.6327 141.366 83.7326C141.754 83.8324 142.042 83.9656 142.241 84.1542C142.441 84.3428 142.551 84.5646 142.551 84.8309C142.551 85.0861 142.441 85.3079 142.241 85.4965Z" fill="white"/>
<path d="M143.67 76H142.507V82.5455H143.67V76Z" fill="white"/>
<path d="M141.566 81.1699L141.411 80.2047C140.569 80.3822 139.739 80.5153 138.908 80.5819C138.144 80.6484 137.314 80.6817 136.417 80.6817V76.699H135.243V81.658H136.151C137.17 81.658 138.1 81.6247 138.964 81.5471C139.827 81.4694 140.691 81.3363 141.555 81.1477L141.566 81.1699Z" fill="white"/>
</svg>
