<svg width="165" height="122" viewBox="0 0 165 122" fill="none" xmlns="http://www.w3.org/2000/svg">
<path d="M164.37 65.7058C161.032 71.2677 156.246 73.0125 151.46 74.5938C143.617 77.1566 135.614 78.0291 127.611 78.5744C120.894 79.0651 114.178 79.1196 107.462 79.0651C104.526 79.0651 101.63 78.9561 98.6941 78.7925C97.7289 78.7925 97.0854 79.1196 96.442 80.1011C88.1973 92.8061 79.9125 105.456 71.6679 118.161C71.0244 119.143 70.3809 119.688 69.3755 119.852C65.957 120.397 62.5384 121.16 59.1199 121.815C58.9189 121.815 58.7178 121.815 58.3156 121.815C64.4287 106.983 70.4613 92.3154 76.5744 77.4293C73.5179 77.1021 70.6222 76.775 67.7265 76.3933C52.9666 74.6484 38.3676 71.5403 23.9697 66.9055C23.0447 66.6328 22.4415 66.7964 21.7175 67.6143C19.4654 70.2862 17.1327 72.9035 14.8403 75.5208C14.4381 75.957 14.0762 76.3932 13.4729 76.2842C10.4968 75.6299 7.56092 75.0846 4.38373 74.4303C5.87178 72.0856 7.2794 69.9044 8.6468 67.7233C10.3762 64.997 12.1457 62.2706 13.8751 59.5442C14.2371 58.9989 14.4381 58.5627 14.1968 57.6903C9.49136 42.6952 4.82612 27.6455 0.160874 12.6504C0.160874 12.5414 0.0402177 12.4869 0 12.3778C0 11.3418 0.563045 11.6689 0.925004 11.6689C2.81523 11.6689 4.66525 11.7234 6.55548 11.6689C7.48049 11.6689 8.04354 12.0506 8.6468 13.0321C15.2023 23.665 21.7578 34.2434 28.3132 44.9308C28.9969 46.0213 29.7209 46.4576 30.7665 46.403C41.5448 46.294 52.3232 46.1304 63.1015 45.6397C65.1928 45.5306 67.2841 45.4761 69.3755 45.4216C69.6168 45.4216 69.9385 45.4761 70.0994 45.1489C70.22 44.7672 69.9385 44.5491 69.7776 44.2765C69.6168 44.0584 69.4961 43.8402 69.3352 43.6221C60.2058 29.663 51.0764 15.704 41.9872 1.74488C41.6655 1.25413 41.1024 0.872443 41.2231 0H42.2688C42.3492 0.490749 42.6709 0.327164 42.9122 0.381692C45.5666 0.981496 48.2612 1.47226 50.9156 2.18111C52.4841 2.56281 54.1732 2.29016 55.5406 3.70788C68.2896 16.7945 81.0788 29.9357 93.8278 43.0769C94.5115 43.7857 95.1952 44.1129 96.08 44.0584C107.301 43.404 118.481 42.8042 129.702 42.7497C135.212 42.7497 140.561 43.8948 145.789 46.2395C149.208 47.7662 152.546 49.5657 155.16 53.0554C156.567 54.9094 158.176 56.4361 159.785 57.9084C161.595 59.5442 163.364 61.2346 164.45 63.961V65.7603L164.37 65.7058Z" fill="#EAEAEA"/>
</svg>
