<svg width="26" height="26" viewBox="0 0 26 26" fill="none" xmlns="http://www.w3.org/2000/svg">
<mask id="mask0_4391_8123" style="mask-type:alpha" maskUnits="userSpaceOnUse" x="0" y="0" width="26" height="26">
<rect width="26" height="26" fill="#D9D9D9"/>
</mask>
<g mask="url(#mask0_4391_8123)">
<path d="M8.9388 19.5011C7.06102 19.5011 5.46311 18.8421 4.14505 17.5241C2.827 16.206 2.16797 14.6081 2.16797 12.7303C2.16797 10.8525 2.827 9.25461 4.14505 7.93656C5.46311 6.6185 7.06102 5.95947 8.9388 5.95947H18.9596C20.3138 5.95947 21.4648 6.43343 22.4128 7.38135C23.3607 8.32926 23.8346 9.48031 23.8346 10.8345C23.8346 12.1886 23.3607 13.3397 22.4128 14.2876C21.4648 15.2355 20.3138 15.7095 18.9596 15.7095H9.48047C8.64991 15.7095 7.94575 15.4206 7.36797 14.8428C6.79019 14.265 6.5013 13.5609 6.5013 12.7303C6.5013 11.8998 6.79019 11.1956 7.36797 10.6178C7.94575 10.04 8.64991 9.75114 9.48047 9.75114H19.5013V11.9178H9.48047C9.24575 11.9178 9.05165 11.9945 8.89818 12.148C8.7447 12.3015 8.66797 12.4956 8.66797 12.7303C8.66797 12.965 8.7447 13.1591 8.89818 13.3126C9.05165 13.4661 9.24575 13.5428 9.48047 13.5428H18.9596C19.718 13.5247 20.3589 13.2584 20.8826 12.7438C21.4062 12.2293 21.668 11.5928 21.668 10.8345C21.668 10.0761 21.4062 9.43517 20.8826 8.91156C20.3589 8.38794 19.718 8.12614 18.9596 8.12614H8.9388C7.65686 8.10808 6.56901 8.55044 5.67526 9.45322C4.78151 10.356 4.33464 11.4484 4.33464 12.7303C4.33464 13.9942 4.78151 15.0685 5.67526 15.9532C6.56901 16.8379 7.65686 17.2984 8.9388 17.3345H19.5013V19.5011H8.9388Z" fill="currentColor"/>
</g>
</svg>
