<svg width="20" height="20" viewBox="0 0 20 20" fill="none" xmlns="http://www.w3.org/2000/svg">
<path fill-rule="evenodd" clip-rule="evenodd" d="M6.755 2.12734C6.82416 1.98894 6.93048 1.87252 7.06206 1.79113C7.19364 1.70974 7.34528 1.66659 7.5 1.6665H12.5C12.6547 1.66659 12.8064 1.70974 12.9379 1.79113C13.0695 1.87252 13.1758 1.98894 13.245 2.12734L14.6817 4.99984H16.6667C16.8877 4.99984 17.0996 5.08763 17.2559 5.24391C17.4122 5.40019 17.5 5.61216 17.5 5.83317C17.5 6.05418 17.4122 6.26614 17.2559 6.42243C17.0996 6.57871 16.8877 6.6665 16.6667 6.6665H15.8333V15.8332C15.8333 16.4962 15.5699 17.1321 15.1011 17.6009C14.6323 18.0698 13.9964 18.3332 13.3333 18.3332H6.66667C6.00363 18.3332 5.36774 18.0698 4.8989 17.6009C4.43006 17.1321 4.16667 16.4962 4.16667 15.8332V6.6665H3.33333C3.11232 6.6665 2.90036 6.57871 2.74408 6.42243C2.5878 6.26614 2.5 6.05418 2.5 5.83317C2.5 5.61216 2.5878 5.40019 2.74408 5.24391C2.90036 5.08763 3.11232 4.99984 3.33333 4.99984H5.31833L6.755 2.12734ZM11.985 3.33317L12.8183 4.99984H7.18167L8.015 3.33317H11.985ZM9.16667 9.1665C9.16667 8.94549 9.07887 8.73353 8.92259 8.57725C8.76631 8.42097 8.55435 8.33317 8.33333 8.33317C8.11232 8.33317 7.90036 8.42097 7.74408 8.57725C7.5878 8.73353 7.5 8.94549 7.5 9.1665V14.1665C7.5 14.3875 7.5878 14.5995 7.74408 14.7558C7.90036 14.912 8.11232 14.9998 8.33333 14.9998C8.55435 14.9998 8.76631 14.912 8.92259 14.7558C9.07887 14.5995 9.16667 14.3875 9.16667 14.1665V9.1665ZM12.5 9.1665C12.5 8.94549 12.4122 8.73353 12.2559 8.57725C12.0996 8.42097 11.8877 8.33317 11.6667 8.33317C11.4457 8.33317 11.2337 8.42097 11.0774 8.57725C10.9211 8.73353 10.8333 8.94549 10.8333 9.1665V14.1665C10.8333 14.3875 10.9211 14.5995 11.0774 14.7558C11.2337 14.912 11.4457 14.9998 11.6667 14.9998C11.8877 14.9998 12.0996 14.912 12.2559 14.7558C12.4122 14.5995 12.5 14.3875 12.5 14.1665V9.1665Z" fill="white"/>
</svg>
